<?xml version="1.0" encoding="UTF-8"?>
<svg version="1.1" xmlns="http://www.w3.org/2000/svg" width="512" height="512">
<path d="M0 0 C4.1757729 0.25970437 6.03793701 1.59926605 8.8125 4.625 C11.35291877 7.29763387 13.88671384 9.85101439 16.6875 12.25 C20.32527372 15.3803436 23.85639592 18.61237768 27.375 21.875 C32.03923835 26.19767547 36.73694337 30.47816805 41.47265625 34.72265625 C44.33082203 37.29809775 47.16710261 39.89685764 50 42.5 C53.64927171 45.85293117 57.31169598 49.18998357 61 52.5 C65.20684327 56.27537217 69.37674853 60.08980448 73.5390625 63.9140625 C76.67667086 66.79422607 79.83020941 69.65531614 83 72.5 C87.20684327 76.27537217 91.37674853 80.08980448 95.5390625 83.9140625 C98.67667086 86.79422607 101.83020941 89.65531614 105 92.5 C109.20684327 96.27537217 113.37674853 100.08980448 117.5390625 103.9140625 C120.67667086 106.79422607 123.83020941 109.65531614 127 112.5 C131.20684327 116.27537217 135.37674853 120.08980448 139.5390625 123.9140625 C142.67667086 126.79422607 145.83020941 129.65531614 149 132.5 C153.19950698 136.26878832 157.36259476 140.07608283 161.51708984 143.89428711 C165.66349717 147.70132074 169.84421959 151.4690185 174.0390625 155.22265625 C177.98482755 158.79899708 177.98482755 158.79899708 178.24609566 162.26024818 C178.25454966 163.69598691 178.25173402 165.13181567 178.24050903 166.5675354 C178.24307231 167.75228708 178.24307231 167.75228708 178.24568737 168.96097314 C178.24899594 171.62202203 178.23795623 174.28282179 178.22705078 176.94384766 C178.22648696 178.84559625 178.22680265 180.74734529 178.22793579 182.64909363 C178.22851145 187.82446782 178.21672276 192.99974998 178.20278788 198.17510271 C178.19031592 203.57900054 178.18911282 208.9829003 178.18673706 214.3868103 C178.18051187 224.62552027 178.16408703 234.86418772 178.14403808 245.10287893 C178.11753956 258.9344383 178.10671483 272.76600924 178.09503365 286.59758759 C178.07620715 308.3984236 178.03636839 330.19916986 178 352 C135.76 352 93.52 352 50 352 C50 309.76 50 267.52 50 224 C18.32 224 -13.36 224 -46 224 C-46 266.24 -46 308.48 -46 352 C-88.24 352 -130.48 352 -174 352 C-174.36272731 303.96326133 -174.36272731 303.96326133 -174.43945312 283.83398438 C-174.49285724 269.93483599 -174.55563849 256.03617861 -174.67895508 242.13745117 C-174.76872359 232.01501595 -174.82673897 221.89297902 -174.84679645 211.7701568 C-174.85851947 206.4110641 -174.88602398 201.05311075 -174.95157051 195.69438362 C-175.01280693 190.64698207 -175.03147537 185.60118548 -175.01796913 180.55344772 C-175.02043869 178.7043109 -175.03825734 176.85511867 -175.07284927 175.00630379 C-175.32079651 161.06691479 -175.32079651 161.06691479 -172.05952263 155.96334648 C-169.82149344 153.68928089 -167.59612697 151.84453868 -165 150 C-163.73970878 148.90759436 -162.48774525 147.80538672 -161.25 146.6875 C-160.60289062 146.13191406 -159.95578125 145.57632813 -159.2890625 145.00390625 C-156.35037429 142.43130036 -153.48863478 139.78057349 -150.625 137.125 C-145.96078625 132.80229839 -141.2630561 128.52183148 -136.52734375 124.27734375 C-133.66917797 121.70190225 -130.83289739 119.10314236 -128 116.5 C-123.54667383 112.40830793 -119.06340112 108.35177023 -114.5625 104.3125 C-111.69399591 101.72384997 -108.8452335 99.11414854 -106 96.5 C-101.54664513 92.40833893 -97.06340146 88.35177054 -92.5625 84.3125 C-89.69399591 81.72384997 -86.8452335 79.11414854 -84 76.5 C-79.54664513 72.40833893 -75.06340146 68.35177054 -70.5625 64.3125 C-67.69399591 61.72384997 -64.8452335 59.11414854 -62 56.5 C-57.54664513 52.40833893 -53.06340146 48.35177054 -48.5625 44.3125 C-45.69399591 41.72384997 -42.8452335 39.11414854 -40 36.5 C-35.54664513 32.40833893 -31.06340146 28.35177054 -26.5625 24.3125 C-23.18410085 21.26370076 -19.83344354 18.18503316 -16.48291016 15.10571289 C-12.33650283 11.29867926 -8.15578041 7.5309815 -3.9609375 3.77734375 C-2.60913231 2.55210199 -1.29007648 1.29007648 0 0 Z " fill="#000000" transform="translate(254,112)"/>
<path d="M0 0 C3.50827915 1.52079073 5.95271646 3.5995673 8.75 6.1875 C11.78606987 8.9709334 14.82380967 11.74110838 17.9375 14.4375 C22.13303221 18.09057956 26.23373553 21.84505549 30.34375 25.59375 C32.54352741 27.58648953 34.75955218 29.5533814 37 31.5 C40.20899244 34.28814098 43.35916444 37.13528185 46.5 40 C50.28934126 43.45575413 54.11083698 46.8652289 57.98046875 50.23046875 C62.89736556 54.53869748 67.72639032 58.94686156 72.578125 63.328125 C76.3430085 66.72344938 80.11193551 70.11058342 83.9375 73.4375 C88.13303221 77.09057956 92.23373553 80.84505549 96.34375 84.59375 C98.54352741 86.58648953 100.75955218 88.5533814 103 90.5 C107.17729083 94.12944941 111.25537239 97.8647902 115.34375 101.59375 C117.54352741 103.58648953 119.75955218 105.5533814 122 107.5 C126.17729083 111.12944941 130.25537239 114.8647902 134.34375 118.59375 C136.54352741 120.58648953 138.75955218 122.5533814 141 124.5 C144.20899244 127.28814098 147.35916444 130.13528185 150.5 133 C154.28934126 136.45575413 158.11083698 139.8652289 161.98046875 143.23046875 C166.89736556 147.53869748 171.72639032 151.94686156 176.578125 156.328125 C180.3430085 159.72344938 184.11193551 163.11058342 187.9375 166.4375 C192.13303221 170.09057956 196.23373553 173.84505549 200.34375 177.59375 C202.54352741 179.58648953 204.75955218 181.5533814 207 183.5 C210.20899244 186.28814098 213.35916444 189.13528185 216.5 192 C222.87976664 197.81502934 229.34127297 203.5065502 236 209 C234.26727919 213.25784443 231.24188592 216.40102032 228.25 219.8125 C227.73695313 220.40353516 227.22390625 220.99457031 226.6953125 221.60351562 C225.66098629 222.79506982 224.6251835 223.98534391 223.58789062 225.17431641 C221.04174415 228.10175849 218.52074446 231.05068393 216 234 C211.69225281 233.15477998 209.33466852 230.84611043 206.25 227.875 C205.17511914 226.86390256 204.09959825 225.85348509 203.0234375 224.84375 C202.50362305 224.35261719 201.98380859 223.86148438 201.44824219 223.35546875 C199.62753354 221.6513935 197.76068369 220.00669364 195.875 218.375 C190.3192331 213.55387996 184.88105711 208.60168187 179.421875 203.671875 C174.99878599 199.68295423 170.55384995 195.72432093 166.0625 191.8125 C162.8248667 188.9673071 159.6331371 186.07146164 156.43359375 183.18359375 C154.32488854 181.29151315 152.20080199 179.42094242 150.0625 177.5625 C145.86835635 173.91062947 141.76905708 170.15733816 137.66015625 166.41015625 C134.81244205 163.83006864 131.92755982 161.29798144 129.02734375 158.77734375 C126.66510827 156.70640513 124.33204147 154.60487152 122 152.5 C119.01937279 149.81016569 116.02754767 147.13689636 113 144.5 C107.41020011 139.62856797 101.92465102 134.6410485 96.421875 129.671875 C91.99878599 125.68295423 87.55384995 121.72432093 83.0625 117.8125 C79.82624923 114.96852205 76.63591332 112.07387299 73.4375 109.1875 C71.30582519 107.27445851 69.1598089 105.38112388 67 103.5 C61.41020011 98.62856797 55.92465102 93.6410485 50.421875 88.671875 C45.99878599 84.68295423 41.55384995 80.72432093 37.0625 76.8125 C33.82624923 73.96852205 30.63591332 71.07387299 27.4375 68.1875 C24.67260172 65.70618103 21.87669281 63.26288279 19.07421875 60.82421875 C15.81448051 57.95736798 12.60589216 55.03411516 9.39453125 52.11328125 C6.99011391 49.99127508 4.51988903 47.98279012 2 46 C-1.50827915 47.52079073 -3.95271646 49.5995673 -6.75 52.1875 C-9.80776819 54.99045417 -12.86719183 57.78107908 -16 60.5 C-19.02754767 63.13689636 -22.01937279 65.81016569 -25 68.5 C-27.98062721 71.18983431 -30.97245233 73.86310364 -34 76.5 C-38.71701284 80.61081039 -43.35638889 84.80667845 -48 89 C-53.27985576 93.76786975 -58.57291806 98.51512218 -63.9375 103.1875 C-66.30964429 105.27211164 -68.65556065 107.38428644 -71 109.5 C-73.98062721 112.18983431 -76.97245233 114.86310364 -80 117.5 C-84.71701284 121.61081039 -89.35638889 125.80667845 -94 130 C-99.27985576 134.76786975 -104.57291806 139.51512218 -109.9375 144.1875 C-112.30964429 146.27211164 -114.65556065 148.38428644 -117 150.5 C-119.98062721 153.18983431 -122.97245233 155.86310364 -126 158.5 C-130.71701284 162.61081039 -135.35638889 166.80667845 -140 171 C-145.27985576 175.76786975 -150.57291806 180.51512218 -155.9375 185.1875 C-158.30964429 187.27211164 -160.65556065 189.38428644 -163 191.5 C-165.98062721 194.18983431 -168.97245233 196.86310364 -172 199.5 C-176.71701284 203.61081039 -181.35638889 207.80667845 -186 212 C-197.1125 222.03492424 -197.1125 222.03492424 -202.12109375 226.35546875 C-203.40563873 227.47977943 -204.66802873 228.6297776 -205.91015625 229.80078125 C-206.51730469 230.36152344 -207.12445313 230.92226563 -207.75 231.5 C-208.28109375 232.0053125 -208.8121875 232.510625 -209.359375 233.03125 C-211 234 -211 234 -212.91357422 233.75634766 C-215.38898955 232.85898787 -216.34003906 231.87352132 -218.0234375 229.8671875 C-218.57 229.22523438 -219.1165625 228.58328125 -219.6796875 227.921875 C-220.51886719 226.90867187 -220.51886719 226.90867187 -221.375 225.875 C-221.92671875 225.22273437 -222.4784375 224.57046875 -223.046875 223.8984375 C-224.1517396 222.59127374 -225.25301486 221.28106724 -226.35058594 219.96777344 C-228.87476252 216.9563964 -231.43836797 213.97954179 -234 211 C-232.5287371 207.89988153 -231.21705955 206.07149626 -228.5625 203.875 C-225.14263089 200.9826969 -221.80439086 198.02404616 -218.5 195 C-214.73649479 191.56735239 -210.93870649 188.1844499 -207.09375 184.84375 C-204.53580973 182.59123543 -202.0182102 180.29682908 -199.5 178 C-195.73649479 174.56735239 -191.93870649 171.1844499 -188.09375 167.84375 C-185.53580973 165.59123543 -183.0182102 163.29682908 -180.5 161 C-176.71065874 157.54424587 -172.88916302 154.1347711 -169.01953125 150.76953125 C-164.97334911 147.22423046 -160.99256813 143.60541001 -157 140 C-147.51127959 131.43139793 -147.51127959 131.43139793 -143.0625 127.5625 C-138.86696779 123.90942044 -134.76626447 120.15494451 -130.65625 116.40625 C-127.83277331 113.84851229 -124.96943998 111.34230031 -122.09375 108.84375 C-119.53580973 106.59123543 -117.0182102 104.29682908 -114.5 102 C-110.73649479 98.56735239 -106.93870649 95.1844499 -103.09375 91.84375 C-100.53580973 89.59123543 -98.0182102 87.29682908 -95.5 85 C-91.71065874 81.54424587 -87.88916302 78.1347711 -84.01953125 74.76953125 C-79.97334911 71.22423046 -75.99256813 67.60541001 -72 64 C-62.51127959 55.43139793 -62.51127959 55.43139793 -58.0625 51.5625 C-53.86696779 47.90942044 -49.76626447 44.15494451 -45.65625 40.40625 C-42.83277331 37.84851229 -39.96943998 35.34230031 -37.09375 32.84375 C-34.53580973 30.59123543 -32.0182102 28.29682908 -29.5 26 C-25.74055982 22.57106005 -21.9478293 19.19079615 -18.10546875 15.85546875 C-14.56154822 12.73234769 -11.09129632 9.52818114 -7.61328125 6.33203125 C-5.14104349 4.12586392 -2.6073586 2.04360539 0 0 Z " fill="#000000" transform="translate(255,50)"/>
</svg>
